0
SECTION
2
HEADER
9
$INSUNITS
70
4
9
$ACADVER
1
AC1014
9
$HANDSEED
5
FFFF
0
ENDSEC
0
SECTION
2
TABLES
0
TABLE
2
VPORT
5
8
100
AcDbSymbolTable
0
ENDTAB
0
TABLE
2
LTYPE
5
5
100
AcDbSymbolTable
0
LTYPE
5
14
100
AcDbSymbolTableRecord
100
AcDbLinetypeTableRecord
2
BYBLOCK
70
0
0
LTYPE
5
15
100
AcDbSymbolTableRecord
100
AcDbLinetypeTableRecord
2
BYLAYER
70
0
0
ENDTAB
0
TABLE
2
LAYER
5
2
100
AcDbSymbolTable
70
2
0
LAYER
5
50
100
AcDbSymbolTableRecord
100
AcDbLayerTableRecord
2
0
70
0
6
CONTINUOUS
0
ENDTAB
0
TABLE
2
STYLE
5
3
100
AcDbSymbolTable
70
1
0
STYLE
5
11
100
AcDbSymbolTableRecord
100
AcDbTextStyleTableRecord
2
STANDARD
70
0
0
ENDTAB
0
TABLE
2
VIEW
5
6
100
AcDbSymbolTable
70
0
0
ENDTAB
0
TABLE
2
UCS
5
7
100
AcDbSymbolTable
70
0
0
ENDTAB
0
TABLE
2
APPID
5
9
100
AcDbSymbolTable
70
2
0
APPID
5
12
100
AcDbSymbolTableRecord
100
AcDbRegAppTableRecord
2
ACAD
70
0
0
ENDTAB
0
TABLE
2
DIMSTYLE
5
A
100
AcDbSymbolTable
70
1
0
ENDTAB
0
TABLE
2
BLOCK_RECORD
5
1
100
AcDbSymbolTable
70
1
0
BLOCK_RECORD
5
1F
100
AcDbSymbolTableRecord
100
AcDbBlockTableRecord
2
*MODEL_SPACE
0
BLOCK_RECORD
5
1B
100
AcDbSymbolTableRecord
100
AcDbBlockTableRecord
2
*PAPER_SPACE
0
ENDTAB
0
ENDSEC
0
SECTION
2
BLOCKS
0
BLOCK
5
20
100
AcDbEntity
100
AcDbBlockBegin
2
*MODEL_SPACE
0
ENDBLK
5
21
100
AcDbEntity
100
AcDbBlockEnd
0
BLOCK
5
1C
100
AcDbEntity
100
AcDbBlockBegin
2
*PAPER_SPACE
0
ENDBLK
5
1D
100
AcDbEntity
100
AcDbBlockEnd
0
ENDSEC
0
SECTION
2
ENTITIES
0
CIRCLE
5
100
100
AcDbEntity
8
0
100
AcDbCircle
10
69
20
-36.000000000000021
30
0
40
1.5000000000000036
210
0
220
-0
230
1
0
CIRCLE
5
101
100
AcDbEntity
8
0
100
AcDbCircle
10
-44
20
-36.000000000000021
30
0
40
1.5000000000000036
210
0
220
-0
230
1
0
CIRCLE
5
102
100
AcDbEntity
8
0
100
AcDbCircle
10
69
20
35.999999999999986
30
0
40
1.5000000000000036
210
0
220
-0
230
1
0
CIRCLE
5
103
100
AcDbEntity
8
0
100
AcDbCircle
10
-44
20
35.999999999999986
30
0
40
1.5000000000000036
210
0
220
-0
230
1
0
CIRCLE
5
104
100
AcDbEntity
8
0
100
AcDbCircle
10
64.508863035915851
20
-6.0839365758399726
30
0
40
1.5
210
1.7928656936841315e-31
220
3.5132849014936679e-31
230
1
0
CIRCLE
5
105
100
AcDbEntity
8
0
100
AcDbCircle
10
15.008863035915866
20
-6.0839365758398056
30
0
40
1.4999999999999996
210
3.2670830208771038e-60
220
-3.944304526105059e-31
230
1
0
CIRCLE
5
106
100
AcDbEntity
8
0
100
AcDbCircle
10
64.508863035915724
20
-16.083936575839985
30
0
40
1.4999999999999987
210
0
220
-0
230
1
0
CIRCLE
5
107
100
AcDbEntity
8
0
100
AcDbCircle
10
15.008863035915939
20
-16.083936575839822
30
0
40
1.4999999999999996
210
3.2670830208771038e-60
220
-3.944304526105059e-31
230
1
0
CIRCLE
5
108
100
AcDbEntity
8
0
100
AcDbCircle
10
64.508863035915908
20
14.916063424160029
30
0
40
1.5
210
1.7928656936841315e-31
220
3.5132849014936679e-31
230
1
0
CIRCLE
5
109
100
AcDbEntity
8
0
100
AcDbCircle
10
15.008863035915931
20
14.916063424160196
30
0
40
1.4999999999999996
210
3.2670830208771038e-60
220
-3.944304526105059e-31
230
1
0
CIRCLE
5
110
100
AcDbEntity
8
0
100
AcDbCircle
10
64.50886303591578
20
4.9160634241600167
30
0
40
1.4999999999999987
210
0
220
-0
230
1
0
CIRCLE
5
111
100
AcDbEntity
8
0
100
AcDbCircle
10
15.008863035916004
20
4.9160634241601811
30
0
40
1.4999999999999996
210
3.2670830208771038e-60
220
-3.944304526105059e-31
230
1
0
CIRCLE
5
112
100
AcDbEntity
8
0
100
AcDbCircle
10
-44.749999999999872
20
15.916048512466247
30
0
40
1.5000000000000069
210
0
220
-0
230
1
0
CIRCLE
5
113
100
AcDbEntity
8
0
100
AcDbCircle
10
4.7500000000000258
20
25.916048512466261
30
0
40
1.4999999999999996
210
1.7502230468984506e-61
220
-3.944304526105059e-31
230
1
0
CIRCLE
5
114
100
AcDbEntity
8
0
100
AcDbCircle
10
4.7500000000001288
20
15.916048512466244
30
0
40
1.4999999999999971
210
-1.5557538194652858e-61
220
-6.9034126855749498e-92
230
1
0
CIRCLE
5
115
100
AcDbEntity
8
0
100
AcDbCircle
10
-44.749999999999773
20
25.916048512466272
30
0
40
1.4999999999999969
210
0
220
-0
230
1
0
CIRCLE
5
116
100
AcDbEntity
8
0
100
AcDbCircle
10
-44.749999999999943
20
-5.0839514875337519
30
0
40
1.5000000000000069
210
0
220
-0
230
1
0
CIRCLE
5
117
100
AcDbEntity
8
0
100
AcDbCircle
10
4.74999999999996
20
4.9160485124662632
30
0
40
1.4999999999999996
210
1.7502230468984506e-61
220
-3.944304526105059e-31
230
1
0
CIRCLE
5
118
100
AcDbEntity
8
0
100
AcDbCircle
10
4.7500000000000631
20
-5.0839514875337564
30
0
40
1.4999999999999971
210
-1.5557538194652858e-61
220
-6.9034126855749498e-92
230
1
0
CIRCLE
5
119
100
AcDbEntity
8
0
100
AcDbCircle
10
-44.749999999999844
20
4.9160485124662676
30
0
40
1.4999999999999969
210
0
220
-0
230
1
0
CIRCLE
5
120
100
AcDbEntity
8
0
100
AcDbCircle
10
-44.750000000000007
20
-26.083951487533753
30
0
40
1.5000000000000069
210
0
220
-0
230
1
0
CIRCLE
5
121
100
AcDbEntity
8
0
100
AcDbCircle
10
4.7499999999998952
20
-16.083951487533739
30
0
40
1.4999999999999996
210
1.7502230468984506e-61
220
-3.944304526105059e-31
230
1
0
CIRCLE
5
122
100
AcDbEntity
8
0
100
AcDbCircle
10
4.7499999999999973
20
-26.083951487533756
30
0
40
1.4999999999999971
210
-1.5557538194652858e-61
220
-6.9034126855749498e-92
230
1
0
CIRCLE
5
123
100
AcDbEntity
8
0
100
AcDbCircle
10
-44.749999999999908
20
-16.083951487533735
30
0
40
1.4999999999999969
210
0
220
-0
230
1
0
LWPOLYLINE
5
124
100
AcDbEntity
8
0
100
AcDbPolyline
90
20
70
1
43
0.0
10
12.138933676912689
20
-22.032767814297362
10
12.138933676912691
20
-18.997505248411933
10
17.95056019082946
20
-18.997505248411933
10
17.95056019082946
20
-2.9999997317790994
10
12.138933676912691
20
-2.9999997317790985
10
12.138933676912691
20
2.0024947515880696
10
17.95056019082946
20
2.0024947515880687
10
17.95056019082946
20
18.000000268220901
10
12.138933676912691
20
18.000000268220901
10
12.138933676912689
20
20.967232185702628
10
68.1389336769127
20
20.967232185702628
10
68.138933676912686
20
18.000000268220901
10
61.638933676912686
20
18.000000268220901
10
61.638933676912686
20
2.0024947515880687
10
68.138933676912686
20
2.0024947515880687
10
68.138933676912686
20
-2.9999997317790985
10
61.638933676912686
20
-2.9999997317790985
10
61.638933676912686
20
-18.997505248411933
10
68.138933676912686
20
-18.997505248411933
10
68.1389336769127
20
-22.032767814297365
0
LWPOLYLINE
5
125
100
AcDbEntity
8
0
100
AcDbPolyline
90
28
70
1
43
0.0
10
-48.168558003318786
20
32.015441062409224
10
7.8314419966812121
20
32.015441062409231
10
7.8314419966812121
20
28.999999806284904
10
1.8314419966812112
20
28.999999806284904
10
1.8314419966812112
20
12.999999567866327
10
7.8314419966812121
20
12.999999567866327
10
7.8314419966812121
20
7.9999998062849054
10
1.8314419966812112
20
7.9999998062849063
10
1.8314419966812112
20
-8.0000004321336728
10
7.8314419966812121
20
-8.0000004321336728
10
7.8314419966812121
20
-13.000000193715096
10
1.8314419966812112
20
-13.000000193715096
10
1.8314419966812112
20
-29.000000432133675
10
7.8314419966812121
20
-29.000000432133675
10
7.8314419966812077
20
-31.984558937590776
10
-48.168558003318807
20
-31.98455893759078
10
-48.1685580033188
20
-29.000000432133675
10
-42.00000062584877
20
-29.000000432133675
10
-42.00000062584877
20
-13.000000193715096
10
-48.1685580033188
20
-13.000000193715096
10
-48.1685580033188
20
-8.0000004321336746
10
-42.00000062584877
20
-8.0000004321336728
10
-42.00000062584877
20
7.9999998062849063
10
-48.1685580033188
20
7.9999998062849063
10
-48.1685580033188
20
12.999999567866327
10
-42.00000062584877
20
12.999999567866327
10
-42.00000062584877
20
28.999999806284904
10
-48.1685580033188
20
28.999999806284904
0
LWPOLYLINE
5
126
100
AcDbEntity
8
0
100
AcDbPolyline
90
4
70
1
43
0.0
10
-53
20
39.999999999999993
10
-53
20
-40
10
77
20
-40
10
77
20
39.999999999999993
0
ENDSEC
0
SECTION
2
OBJECTS
0
DICTIONARY
5
C
100
AcDbDictionary
3
ACAD_GROUP
350
D
3
ACAD_MLINESTYLE
350
17
0
DICTIONARY
5
D
100
AcDbDictionary
0
DICTIONARY
5
1A
330
C
100
AcDbDictionary
0
DICTIONARY
5
17
100
AcDbDictionary
0
ENDSEC
0
EOF
